<svg width="100" height="100" viewBox="0 0 100 100" fill="none" xmlns="http://www.w3.org/2000/svg">
<rect width="100" height="100" fill="white"/>
<g clip-path="url(#clip0_4153_1569)">
<path d="M71.272 25.5214C72.1702 26.5784 73.4075 31.1389 73.9509 32.6527C76.0824 38.6957 78.1349 44.7939 80.0492 50.9117C82.128 57.5548 84.0079 64.303 86.0239 70.9701C86.2287 71.6474 87.1444 74.4058 86.7574 74.8774C86.5116 74.818 86.3701 74.6187 86.1922 74.4291C84.2324 72.893 81.9348 70.8034 80.014 69.1521L67.9723 58.8593L57.6567 50.03C56.2178 48.7934 54.5993 47.7239 53.2643 46.332C52.6311 45.6715 52.3789 45.1629 52.2668 44.2379C52.2306 43.945 52.2089 43.6505 52.2017 43.3555C52.0544 42.1227 52.2587 37.2785 52.982 36.2573C53.703 35.2394 55.4374 33.7522 56.3662 32.8178C58.9568 30.4569 61.4362 27.9005 64.2419 25.7947C64.6074 25.5205 65.151 25.4463 65.5908 25.382C66.5825 25.2988 69.8307 25.1956 70.5964 25.401C70.7944 25.4046 71.0688 25.477 71.272 25.5214Z" fill="url(#paint0_linear_4153_1569)"/>
<path d="M29.5798 25.5214C28.6815 26.5784 27.4442 31.1389 26.9008 32.6527C24.7693 38.6957 22.7168 44.7939 20.8025 50.9117C18.7237 57.5548 16.8438 64.303 14.8278 70.9701C14.623 71.6474 13.7073 74.4058 14.0944 74.8774C14.3401 74.818 14.4816 74.6187 14.6595 74.4291C16.6193 72.893 18.9169 70.8034 20.8377 69.1521L32.8794 58.8593L43.195 50.03C44.6339 48.7934 46.2524 47.7239 47.5874 46.332C48.2206 45.6715 48.4728 45.1629 48.5849 44.2379C48.6211 43.945 48.6428 43.6505 48.65 43.3555C48.7973 42.1227 48.593 37.2785 47.8697 36.2573C47.1487 35.2394 45.4143 33.7522 44.4855 32.8178C41.8949 30.4569 39.4155 27.9005 36.6098 25.7947C36.2444 25.5205 35.7007 25.4463 35.2609 25.382C34.2692 25.2988 31.021 25.1956 30.2553 25.401C30.0573 25.4046 29.783 25.477 29.5798 25.5214Z" fill="url(#paint1_linear_4153_1569)"/>
<path d="M52.2019 43.3555C52.0546 42.1227 51.9624 37.1822 52.6857 36.161C56.34 31.8713 63.348 26.135 63.348 26.135C63.7135 25.8608 64.808 25.4011 65.5911 25.3821C66.5827 25.2988 69.8309 25.1956 70.5967 25.4011C69.0207 25.5078 65.6917 25.0925 64.3796 26.135C63.7894 26.6037 62.6856 28.086 62.1616 28.7453C60.851 30.3773 59.5605 32.0254 58.2905 33.6892C57.2013 35.0929 55.5436 37.0071 54.5899 38.4174C54.3024 38.6169 52.6494 40.7906 52.3167 41.2095C52.1504 41.3618 52.2046 43.0179 52.2019 43.3555Z" fill="url(#paint2_linear_4153_1569)"/>
<path d="M48.6498 43.3555C48.7971 42.1227 48.8893 37.1822 48.166 36.161C44.5117 31.8713 37.5037 26.135 37.5037 26.135C37.1383 25.8608 36.0437 25.4011 35.2606 25.3821C34.269 25.2988 31.0208 25.1956 30.2551 25.4011C31.831 25.5078 35.16 25.0925 36.4721 26.135C37.0623 26.6037 38.1661 28.086 38.6901 28.7453C40.0008 30.3773 41.2912 32.0254 42.5612 33.6892C43.6504 35.0929 45.3081 37.0071 46.2618 38.4174C46.5493 38.6169 48.2023 40.7906 48.535 41.2095C48.7013 41.3618 48.6471 43.0179 48.6498 43.3555Z" fill="url(#paint3_linear_4153_1569)"/>
<path d="M71.272 25.5214C72.1702 26.5784 73.4075 31.1389 73.9509 32.6528C76.0824 38.6957 78.1349 44.7939 80.0492 50.9117C82.128 57.5548 84.0079 64.303 86.0239 70.9701C86.2287 71.6474 87.1444 74.4058 86.7574 74.8774C86.5116 74.818 86.3701 74.6187 86.1922 74.4291L86.3442 74.2679C86.3059 73.9445 83.8634 70.295 83.5579 70.0738C82.9552 69.0982 75.2957 58.4498 75.0217 58.276C74.8309 57.4822 74.7305 56.5184 74.6455 55.7005C74.2352 51.7555 73.6589 47.8408 73.4235 43.8786C73.4038 43.5463 73.2186 41.7942 73.1143 41.5401C72.9176 38.7296 72.4411 35.5687 72.1095 32.7646C71.8288 30.3917 71.6091 27.8661 71.272 25.5214Z" fill="url(#paint4_linear_4153_1569)"/>
<path d="M29.5798 25.5214C28.6815 26.5784 27.4442 31.1389 26.9008 32.6528C24.7693 38.6957 22.7168 44.7939 20.8025 50.9117C18.7237 57.5548 16.8438 64.303 14.8278 70.9701C14.623 71.6474 13.7073 74.4058 14.0944 74.8774C14.3401 74.818 14.4816 74.6187 14.6595 74.4291L14.5076 74.2679C14.5458 73.9445 16.9883 70.295 17.2938 70.0738C17.8965 69.0982 25.556 58.4498 25.83 58.276C26.0208 57.4822 26.1212 56.5184 26.2062 55.7005C26.6165 51.7555 27.1928 47.8408 27.4282 43.8786C27.4479 43.5463 27.6331 41.7942 27.7374 41.5401C27.9341 38.7296 28.4106 35.5687 28.7422 32.7646C29.0229 30.3917 29.2426 27.8661 29.5798 25.5214Z" fill="url(#paint5_linear_4153_1569)"/>
<path d="M83.5579 70.0738C83.8633 70.295 86.708 73.9766 86.708 74.8538C85.686 74.4152 81.9348 70.8035 80.014 69.1521L67.9723 58.8593L57.6567 50.03C56.2178 48.7935 54.5993 47.7239 53.2643 46.332C52.6311 45.6716 52.3788 45.1629 52.2668 44.238C52.2306 43.945 52.2089 43.6506 52.2017 43.3556C52.2044 43.0179 52.1501 41.3619 52.3165 41.2096C52.7938 42.0371 75.0217 58.2761 75.0217 58.2761C75.2957 58.4498 82.9552 69.0982 83.5579 70.0738Z" fill="url(#paint6_linear_4153_1569)"/>
<path d="M17.2938 70.0738C16.9884 70.295 14.1437 73.9766 14.1437 74.8538C15.1657 74.4152 18.9169 70.8035 20.8377 69.1521L32.8795 58.8593L43.195 50.03C44.6339 48.7935 46.2524 47.7239 47.5875 46.332C48.2207 45.6716 48.4729 45.1629 48.585 44.238C48.6211 43.945 48.6428 43.6506 48.65 43.3556C48.6473 43.0179 48.7016 41.3619 48.5352 41.2096C48.0579 42.0371 25.83 58.2761 25.83 58.2761C25.5561 58.4498 17.8966 69.0982 17.2938 70.0738Z" fill="url(#paint7_linear_4153_1569)"/>
</g>
<defs>
<linearGradient id="paint0_linear_4153_1569" x1="67.436" y1="22.5146" x2="69.4855" y2="54.0932" gradientUnits="userSpaceOnUse">
<stop stop-color="#616981"/>
<stop offset="0.663462" stop-color="#AED2F6"/>
</linearGradient>
<linearGradient id="paint1_linear_4153_1569" x1="33.4157" y1="22.5146" x2="31.3662" y2="54.0932" gradientUnits="userSpaceOnUse">
<stop stop-color="#616981"/>
<stop offset="0.663462" stop-color="#AED2F6"/>
</linearGradient>
<linearGradient id="paint2_linear_4153_1569" x1="52.982" y1="28.2164" x2="57.9485" y2="36.5393" gradientUnits="userSpaceOnUse">
<stop stop-color="#3D485C"/>
<stop offset="1" stop-color="#2C2F3E"/>
</linearGradient>
<linearGradient id="paint3_linear_4153_1569" x1="47.8697" y1="28.2164" x2="42.9033" y2="36.5393" gradientUnits="userSpaceOnUse">
<stop stop-color="#3D485C"/>
<stop offset="1" stop-color="#2C2F3E"/>
</linearGradient>
<linearGradient id="paint4_linear_4153_1569" x1="79.0618" y1="25.5214" x2="83.0688" y2="69.5896" gradientUnits="userSpaceOnUse">
<stop stop-color="#3D485C"/>
<stop offset="1" stop-color="#2C2F3E"/>
</linearGradient>
<linearGradient id="paint5_linear_4153_1569" x1="21.7899" y1="25.5214" x2="17.7829" y2="69.5896" gradientUnits="userSpaceOnUse">
<stop stop-color="#3D485C"/>
<stop offset="1" stop-color="#2C2F3E"/>
</linearGradient>
<linearGradient id="paint6_linear_4153_1569" x1="54.88" y1="43.5673" x2="81.93" y2="73.0628" gradientUnits="userSpaceOnUse">
<stop stop-color="#899CB5"/>
<stop offset="1" stop-color="#615F75"/>
</linearGradient>
<linearGradient id="paint7_linear_4153_1569" x1="45.9717" y1="43.5673" x2="18.9217" y2="73.0628" gradientUnits="userSpaceOnUse">
<stop stop-color="#899CB5"/>
<stop offset="1" stop-color="#615F75"/>
</linearGradient>
<clipPath id="clip0_4153_1569">
<rect width="73" height="50" fill="white" transform="translate(87 75) rotate(180)"/>
</clipPath>
</defs>
</svg>
