<svg width="799" height="80" viewBox="0 0 799 80" fill="none" xmlns="http://www.w3.org/2000/svg">
<path d="M108.058 80L95.596 10.8186L94.9881 10.3671L63.2241 77.7429H53.9532L51.6735 76.05L18.5417 10.7057L17.9337 11.0443L7.29508 80H0L9.27084 20.6371C11.0946 9.01286 10.3347 2.01571 10.3347 2.01571L11.5505 1H27.9645L60.9443 65.78L91.7965 1H107.906L122.041 80H108.058Z" fill="#363E62"/>
<path d="M159.493 80H148.095V1H161.621V67.6986L226.365 1H237.763V80H224.085V13.3014L159.493 80Z" fill="#363E62"/>
<path d="M278.482 56.8643L265.412 80H257.661L300.824 4.27286C299.608 2.80572 299 2.01571 299 2.01571V1H313.894L359.336 80H345.202L331.98 56.8643H278.482ZM311.31 20.6371C308.727 16.3486 306.599 12.85 304.775 10.1414L281.066 52.2371H329.244L311.31 20.6371Z" fill="#363E62"/>
<path d="M455.322 80V42.08H392.858V80H379.331V1H392.858V37.34H455.322V1H469V80H455.322Z" fill="#363E62"/>
<path d="M576.34 25.365H579.28C578.16 27.4417 576.842 28.9817 575.325 29.985C573.808 30.965 572 31.455 569.9 31.455C568.43 31.455 567.053 31.1983 565.77 30.685C564.51 30.1717 563.413 29.46 562.48 28.55C561.547 27.64 560.812 26.5783 560.275 25.365C559.738 24.1283 559.47 22.7983 559.47 21.375C559.47 19.975 559.738 18.6683 560.275 17.455C560.812 16.2417 561.535 15.1917 562.445 14.305C563.378 13.395 564.463 12.6833 565.7 12.17C566.96 11.6567 568.302 11.4 569.725 11.4C571.895 11.4 573.832 11.96 575.535 13.08C577.238 14.2 578.475 15.7283 579.245 17.665H576.34C575.593 16.405 574.648 15.4483 573.505 14.795C572.385 14.1183 571.113 13.78 569.69 13.78C568.617 13.78 567.613 13.9783 566.68 14.375C565.77 14.7717 564.977 15.32 564.3 16.02C563.623 16.6967 563.087 17.5017 562.69 18.435C562.293 19.3683 562.095 20.3717 562.095 21.445C562.095 22.5183 562.293 23.5217 562.69 24.455C563.087 25.365 563.635 26.17 564.335 26.87C565.035 27.5467 565.852 28.0833 566.785 28.48C567.718 28.8767 568.722 29.075 569.795 29.075C571.172 29.075 572.35 28.795 573.33 28.235C574.333 27.675 575.337 26.7183 576.34 25.365ZM586.121 31V14.2H581.081V11.855H593.681V14.2H588.711V31H586.121ZM596.299 37.72V11.855H598.889V15.145C599.705 13.9083 600.744 12.975 602.004 12.345C603.287 11.715 604.757 11.4 606.414 11.4C607.837 11.4 609.167 11.6567 610.404 12.17C611.64 12.6833 612.702 13.395 613.589 14.305C614.499 15.1917 615.21 16.2533 615.724 17.49C616.237 18.7033 616.494 20.0217 616.494 21.445C616.494 22.8683 616.225 24.1867 615.689 25.4C615.175 26.6133 614.464 27.675 613.554 28.585C612.644 29.4717 611.57 30.1717 610.334 30.685C609.097 31.1983 607.767 31.455 606.344 31.455C604.734 31.455 603.299 31.14 602.039 30.51C600.779 29.88 599.729 28.9467 598.889 27.71V37.72H596.299ZM606.309 29.075C607.382 29.075 608.374 28.8883 609.284 28.515C610.217 28.1183 611.022 27.5817 611.699 26.905C612.375 26.2283 612.9 25.435 613.274 24.525C613.67 23.5917 613.869 22.5883 613.869 21.515C613.869 20.395 613.67 19.3683 613.274 18.435C612.9 17.4783 612.375 16.6617 611.699 15.985C611.022 15.285 610.217 14.7483 609.284 14.375C608.35 13.9783 607.324 13.78 606.204 13.78C605.154 13.78 604.174 13.9783 603.264 14.375C602.354 14.7717 601.56 15.32 600.884 16.02C600.207 16.6967 599.67 17.5017 599.274 18.435C598.9 19.3683 598.714 20.3717 598.714 21.445C598.714 22.5183 598.9 23.5217 599.274 24.455C599.67 25.3883 600.207 26.205 600.884 26.905C601.584 27.5817 602.389 28.1183 603.299 28.515C604.232 28.8883 605.235 29.075 606.309 29.075ZM619.421 21.445C619.421 19.9983 619.666 18.6567 620.156 17.42C620.67 16.1833 621.381 15.1217 622.291 14.235C623.201 13.3483 624.275 12.66 625.511 12.17C626.748 11.6567 628.101 11.4 629.571 11.4C630.971 11.4 632.266 11.6567 633.456 12.17C634.67 12.6833 635.708 13.395 636.571 14.305C637.458 15.1917 638.146 16.2533 638.636 17.49C639.15 18.7033 639.406 20.0333 639.406 21.48C639.406 22.9267 639.161 24.2567 638.671 25.47C638.181 26.6833 637.505 27.7333 636.641 28.62C635.778 29.5067 634.74 30.2067 633.526 30.72C632.336 31.21 631.041 31.455 629.641 31.455C628.171 31.455 626.806 31.21 625.546 30.72C624.31 30.2067 623.236 29.5067 622.326 28.62C621.416 27.71 620.705 26.6483 620.191 25.435C619.678 24.1983 619.421 22.8683 619.421 21.445ZM629.571 29.075C630.621 29.075 631.59 28.8883 632.476 28.515C633.363 28.1417 634.121 27.6283 634.751 26.975C635.381 26.2983 635.871 25.4933 636.221 24.56C636.595 23.6267 636.781 22.6117 636.781 21.515C636.781 20.395 636.595 19.3567 636.221 18.4C635.871 17.4433 635.358 16.6267 634.681 15.95C634.028 15.2733 633.246 14.7483 632.336 14.375C631.426 13.9783 630.435 13.78 629.361 13.78C628.311 13.78 627.343 13.9783 626.456 14.375C625.57 14.7483 624.8 15.285 624.146 15.985C623.493 16.6617 622.98 17.4783 622.606 18.435C622.233 19.3683 622.046 20.3833 622.046 21.48C622.046 22.5767 622.233 23.5917 622.606 24.525C622.98 25.435 623.505 26.2283 624.181 26.905C624.858 27.5817 625.651 28.1183 626.561 28.515C627.495 28.8883 628.498 29.075 629.571 29.075ZM643.091 31V11.855H645.681V27.325L657.336 11.855H659.926V31H657.336V15.53L645.681 31H643.091ZM667.606 31V14.2H662.566V11.855H675.166V14.2H670.196V31H667.606ZM693.778 24.7H696.473C696.123 25.7033 695.633 26.625 695.003 27.465C694.373 28.2817 693.65 28.9933 692.833 29.6C692.04 30.1833 691.153 30.6383 690.173 30.965C689.216 31.2917 688.213 31.455 687.163 31.455C685.74 31.455 684.41 31.1983 683.173 30.685C681.96 30.1483 680.898 29.425 679.988 28.515C679.078 27.605 678.355 26.5433 677.818 25.33C677.305 24.0933 677.048 22.7633 677.048 21.34C677.048 19.94 677.305 18.645 677.818 17.455C678.331 16.2417 679.031 15.1917 679.918 14.305C680.805 13.395 681.855 12.6833 683.068 12.17C684.281 11.6567 685.576 11.4 686.953 11.4C688.33 11.4 689.625 11.6683 690.838 12.205C692.075 12.7183 693.148 13.4183 694.058 14.305C694.991 15.1917 695.726 16.23 696.263 17.42C696.8 18.61 697.068 19.87 697.068 21.2C697.068 21.3867 697.056 21.5733 697.033 21.76C697.01 21.9233 696.975 22.0983 696.928 22.285H679.638C679.685 23.2417 679.918 24.1283 680.338 24.945C680.758 25.7617 681.295 26.485 681.948 27.115C682.625 27.7217 683.406 28.2 684.293 28.55C685.18 28.9 686.113 29.075 687.093 29.075C688.563 29.075 689.905 28.6783 691.118 27.885C692.355 27.0683 693.241 26.0067 693.778 24.7ZM679.708 19.94H694.373C693.93 18.0267 693.043 16.5217 691.713 15.425C690.406 14.3283 688.82 13.78 686.953 13.78C686.043 13.78 685.18 13.9317 684.363 14.235C683.57 14.515 682.858 14.935 682.228 15.495C681.598 16.0317 681.061 16.685 680.618 17.455C680.198 18.2017 679.895 19.03 679.708 19.94ZM696.91 31L705.135 11.855H708.04L716.265 31H713.535L706.605 14.795L699.64 31H696.91ZM721.252 28.655H726.222C727.762 28.655 728.917 28.375 729.687 27.815C730.457 27.255 730.842 26.4033 730.842 25.26C730.842 24.1167 730.457 23.265 729.687 22.705C728.917 22.145 727.762 21.865 726.222 21.865H721.252V28.655ZM718.662 31V11.855H721.252V19.52H726.887C727.867 19.52 728.754 19.66 729.547 19.94C730.364 20.22 731.064 20.6167 731.647 21.13C732.23 21.62 732.674 22.2267 732.977 22.95C733.304 23.65 733.467 24.42 733.467 25.26C733.467 26.1 733.304 26.8817 732.977 27.605C732.674 28.305 732.23 28.9117 731.647 29.425C731.064 29.915 730.364 30.3 729.547 30.58C728.754 30.86 727.867 31 726.887 31H718.662ZM736.47 31V11.855H739.06V20.08H750.54V11.855H753.13V31H750.54V22.425H739.06V31H736.47ZM756.789 21.48C756.789 20.0333 757.046 18.7033 757.559 17.49C758.073 16.2533 758.773 15.1917 759.659 14.305C760.569 13.395 761.643 12.6833 762.879 12.17C764.116 11.6567 765.446 11.4 766.869 11.4C768.549 11.4 769.984 11.7033 771.174 12.31C772.388 12.9167 773.473 13.8967 774.429 15.25V11.855H777.019V31H774.429V27.64C773.403 29.0167 772.329 29.9967 771.209 30.58C770.089 31.1633 768.713 31.455 767.079 31.455C765.609 31.455 764.244 31.21 762.984 30.72C761.724 30.2067 760.628 29.5067 759.694 28.62C758.784 27.7333 758.073 26.6833 757.559 25.47C757.046 24.2333 756.789 22.9033 756.789 21.48ZM759.414 21.375C759.414 22.4483 759.613 23.4517 760.009 24.385C760.406 25.3183 760.943 26.135 761.619 26.835C762.319 27.535 763.124 28.0833 764.034 28.48C764.968 28.8767 765.971 29.075 767.044 29.075C768.094 29.075 769.063 28.8767 769.949 28.48C770.859 28.0833 771.641 27.5467 772.294 26.87C772.971 26.17 773.496 25.3533 773.869 24.42C774.243 23.4867 774.429 22.4717 774.429 21.375C774.429 20.2783 774.231 19.275 773.834 18.365C773.461 17.4317 772.936 16.6267 772.259 15.95C771.583 15.2733 770.778 14.7483 769.844 14.375C768.934 13.9783 767.931 13.78 766.834 13.78C765.808 13.78 764.839 13.9783 763.929 14.375C763.043 14.7717 762.261 15.32 761.584 16.02C760.908 16.6967 760.371 17.5017 759.974 18.435C759.601 19.345 759.414 20.325 759.414 21.375ZM792.091 20.92V14.2H787.646C786.106 14.2 784.951 14.48 784.181 15.04C783.411 15.6 783.026 16.44 783.026 17.56C783.026 18.68 783.411 19.52 784.181 20.08C784.951 20.64 786.106 20.92 787.646 20.92H792.091ZM779.526 31L785.056 23.055C783.609 22.7283 782.466 22.075 781.626 21.095C780.809 20.115 780.401 18.9367 780.401 17.56C780.401 16.72 780.553 15.95 780.856 15.25C781.183 14.55 781.638 13.955 782.221 13.465C782.804 12.9517 783.493 12.555 784.286 12.275C785.103 11.995 786.001 11.855 786.981 11.855H794.681V31H792.091V23.265H787.856L782.466 31H779.526ZM560.205 71V51.855H562.795V60.395L571.545 51.855H574.905L565.35 61.13L574.905 71H571.51L562.795 61.97V71H560.205ZM576.56 61.445C576.56 59.9983 576.805 58.6567 577.295 57.42C577.808 56.1833 578.52 55.1217 579.43 54.235C580.34 53.3483 581.413 52.66 582.65 52.17C583.887 51.6567 585.24 51.4 586.71 51.4C588.11 51.4 589.405 51.6567 590.595 52.17C591.808 52.6833 592.847 53.395 593.71 54.305C594.597 55.1917 595.285 56.2533 595.775 57.49C596.288 58.7033 596.545 60.0333 596.545 61.48C596.545 62.9267 596.3 64.2567 595.81 65.47C595.32 66.6833 594.643 67.7333 593.78 68.62C592.917 69.5067 591.878 70.2067 590.665 70.72C589.475 71.21 588.18 71.455 586.78 71.455C585.31 71.455 583.945 71.21 582.685 70.72C581.448 70.2067 580.375 69.5067 579.465 68.62C578.555 67.71 577.843 66.6483 577.33 65.435C576.817 64.1983 576.56 62.8683 576.56 61.445ZM586.71 69.075C587.76 69.075 588.728 68.8883 589.615 68.515C590.502 68.1417 591.26 67.6283 591.89 66.975C592.52 66.2983 593.01 65.4933 593.36 64.56C593.733 63.6267 593.92 62.6117 593.92 61.515C593.92 60.395 593.733 59.3567 593.36 58.4C593.01 57.4433 592.497 56.6267 591.82 55.95C591.167 55.2733 590.385 54.7483 589.475 54.375C588.565 53.9783 587.573 53.78 586.5 53.78C585.45 53.78 584.482 53.9783 583.595 54.375C582.708 54.7483 581.938 55.285 581.285 55.985C580.632 56.6617 580.118 57.4783 579.745 58.435C579.372 59.3683 579.185 60.3833 579.185 61.48C579.185 62.5767 579.372 63.5917 579.745 64.525C580.118 65.435 580.643 66.2283 581.32 66.905C581.997 67.5817 582.79 68.1183 583.7 68.515C584.633 68.8883 585.637 69.075 586.71 69.075ZM600.229 71V51.855H604.254L610.939 67.395L617.624 51.855H621.649V71H619.059V54.69L612.059 71H609.819L602.819 54.69V71H600.229ZM626.069 71V51.855H642.554V71H639.964V54.2H628.659V71H626.069ZM646.218 61.48C646.218 60.0333 646.475 58.7033 646.988 57.49C647.501 56.2533 648.201 55.1917 649.088 54.305C649.998 53.395 651.071 52.6833 652.308 52.17C653.545 51.6567 654.875 51.4 656.298 51.4C657.978 51.4 659.413 51.7033 660.603 52.31C661.816 52.9167 662.901 53.8967 663.858 55.25V51.855H666.448V71H663.858V67.64C662.831 69.0167 661.758 69.9967 660.638 70.58C659.518 71.1633 658.141 71.455 656.508 71.455C655.038 71.455 653.673 71.21 652.413 70.72C651.153 70.2067 650.056 69.5067 649.123 68.62C648.213 67.7333 647.501 66.6833 646.988 65.47C646.475 64.2333 646.218 62.9033 646.218 61.48ZM648.843 61.375C648.843 62.4483 649.041 63.4517 649.438 64.385C649.835 65.3183 650.371 66.135 651.048 66.835C651.748 67.535 652.553 68.0833 653.463 68.48C654.396 68.8767 655.4 69.075 656.473 69.075C657.523 69.075 658.491 68.8767 659.378 68.48C660.288 68.0833 661.07 67.5467 661.723 66.87C662.4 66.17 662.925 65.3533 663.298 64.42C663.671 63.4867 663.858 62.4717 663.858 61.375C663.858 60.2783 663.66 59.275 663.263 58.365C662.89 57.4317 662.365 56.6267 661.688 55.95C661.011 55.2733 660.206 54.7483 659.273 54.375C658.363 53.9783 657.36 53.78 656.263 53.78C655.236 53.78 654.268 53.9783 653.358 54.375C652.471 54.7717 651.69 55.32 651.013 56.02C650.336 56.6967 649.8 57.5017 649.403 58.435C649.03 59.345 648.843 60.325 648.843 61.375ZM670.845 71V51.855H673.435V60.08H684.915V51.855H687.505V71H684.915V62.425H673.435V71H670.845ZM691.899 71V51.855H694.489V67.325L706.144 51.855H708.734V71H706.144V55.53L694.489 71H691.899ZM723.834 60.92V54.2H719.389C717.849 54.2 716.694 54.48 715.924 55.04C715.154 55.6 714.769 56.44 714.769 57.56C714.769 58.68 715.154 59.52 715.924 60.08C716.694 60.64 717.849 60.92 719.389 60.92H723.834ZM711.269 71L716.799 63.055C715.352 62.7283 714.209 62.075 713.369 61.095C712.552 60.115 712.144 58.9367 712.144 57.56C712.144 56.72 712.296 55.95 712.599 55.25C712.926 54.55 713.381 53.955 713.964 53.465C714.547 52.9517 715.236 52.555 716.029 52.275C716.846 51.995 717.744 51.855 718.724 51.855H726.424V71H723.834V63.265H719.599L714.209 71H711.269Z" fill="#363E62"/>
<rect x="512" y="1" width="3" height="79" fill="#363E62"/>
</svg>
